<svg xmlns="http://www.w3.org/2000/svg" xmlns:xlink="http://www.w3.org/1999/xlink" version="1.1" x="0px" y="0px" viewBox="0 0 100 100" enable-background="new 0 0 100 100" xml:space="preserve"><path d="M95,44.9l-1-0.6c-0.8-0.5-0.8-1.3-0.1-1.9l1.4-1.2c0.7-0.6,0.8-1.6,0.2-2.3L77.3,17.7c-0.6-0.7-1.6-0.8-2.3-0.2l-1.4,1.2  c-0.7,0.6-1.5,0.4-1.9-0.4l-0.5-1.1c-0.4-0.8-1.2-1-1.9-0.4L26.5,53.8c-0.7,0.6-0.6,1.5,0.1,1.9l1,0.6c0.8,0.5,0.8,1.3,0.1,1.9  l-1.4,1.2c-0.7,0.6-0.8,1.6-0.2,2.3l6.6,7.6H5.6c-0.5,0-1,0.4-1,1c0,0.5,0.4,1,1,1h28.8l0,0h32.3l28.4-24.5  C95.8,46.3,95.8,45.4,95,44.9z M80.2,35.9L73.1,42l1.2,1.4c0.6,0.7,0.5,1.8-0.2,2.4c-0.7,0.6-1.8,0.5-2.4-0.2l-1.2-1.4l-7.2,6.2  l2.8,3.3c0.6,0.7,0.5,1.8-0.2,2.4c-0.7,0.6-1.8,0.5-2.4-0.2l-2.8-3.3L53.4,59l1.2,1.4c0.6,0.7,0.5,1.8-0.2,2.4  c-0.7,0.6-1.8,0.5-2.4-0.2l-1.2-1.4l-6.8,5.9c-0.7,0.6-1.8,0.5-2.4-0.2c-0.6-0.7-0.5-1.8,0.2-2.4l6.8-5.9l-1.2-1.4  c-0.6-0.7-0.5-1.8,0.2-2.4c0.7-0.6,1.8-0.5,2.4,0.2l1.2,1.4l7.2-6.2l-2.8-3.3c-0.6-0.7-0.5-1.8,0.2-2.4c0.7-0.6,1.8-0.5,2.4,0.2  l2.8,3.3l7.2-6.2L67,40.3c-0.6-0.7-0.5-1.8,0.2-2.4c0.7-0.6,1.8-0.5,2.4,0.2l1.2,1.4l7.1-6.2c0.7-0.6,1.8-0.5,2.4,0.2  C81.1,34.2,81,35.2,80.2,35.9z"></path></svg>